<svg xmlns="http://www.w3.org/2000/svg" xmlns:xlink="http://www.w3.org/1999/xlink" width="500" zoomAndPan="magnify" viewBox="0 0 375 374.999991" height="500" preserveAspectRatio="xMidYMid meet" version="1.0"><defs><g/></defs><g fill="#ffffff" fill-opacity="1"><g transform="translate(113.757508, 174.151822)"><g><path d="M 8.875 -4.015625 C 9.976562 -3.253906 11.425781 -2.875 13.21875 -2.875 C 17.300781 -2.875 19.34375 -4.40625 19.34375 -7.46875 C 19.34375 -9.257812 17.875 -10.617188 14.9375 -11.546875 C 13.695312 -11.972656 12.378906 -12.359375 10.984375 -12.703125 C 9.535156 -13.046875 8.191406 -13.492188 6.953125 -14.046875 C 5.503906 -14.722656 4.421875 -15.570312 3.703125 -16.59375 C 2.972656 -17.613281 2.609375 -18.828125 2.609375 -20.234375 C 2.609375 -23.046875 3.585938 -25.148438 5.546875 -26.546875 C 7.503906 -27.992188 9.847656 -28.71875 12.578125 -28.71875 C 15.296875 -28.71875 17.550781 -28.164062 19.34375 -27.0625 C 21.125 -25.957031 22.335938 -23.976562 22.984375 -21.125 L 18.1875 -21.125 C 17.675781 -22.695312 16.929688 -23.738281 15.953125 -24.25 C 15.015625 -24.757812 13.847656 -25.015625 12.453125 -25.015625 C 11.046875 -25.015625 9.851562 -24.71875 8.875 -24.125 C 7.851562 -23.488281 7.34375 -22.550781 7.34375 -21.3125 C 7.34375 -20.039062 7.765625 -19.109375 8.609375 -18.515625 C 9.421875 -17.960938 10.445312 -17.472656 11.6875 -17.046875 C 12.914062 -16.660156 14.253906 -16.316406 15.703125 -16.015625 C 17.109375 -15.679688 18.445312 -15.210938 19.71875 -14.609375 C 22.613281 -13.253906 24.0625 -11.066406 24.0625 -8.046875 C 24.0625 -5.023438 22.976562 -2.789062 20.8125 -1.34375 C 19.707031 -0.613281 18.492188 -0.0625 17.171875 0.3125 C 15.890625 0.65625 14.484375 0.828125 12.953125 0.828125 C 6.441406 0.828125 2.695312 -2.0625 1.71875 -7.84375 L 6.453125 -7.84375 C 6.921875 -6.019531 7.726562 -4.742188 8.875 -4.015625 Z M 8.875 -4.015625 "/></g></g></g><g fill="#ffffff" fill-opacity="1"><g transform="translate(133.735262, 174.151822)"><g><path d="M 9.3125 -37.78125 C 9.875 -37.226562 10.15625 -36.570312 10.15625 -35.8125 C 10.15625 -35 9.875 -34.316406 9.3125 -33.765625 C 8.757812 -33.210938 8.101562 -32.9375 7.34375 -32.9375 C 6.53125 -32.9375 5.847656 -33.210938 5.296875 -33.765625 C 4.742188 -34.316406 4.46875 -35 4.46875 -35.8125 C 4.46875 -36.570312 4.742188 -37.226562 5.296875 -37.78125 C 5.847656 -38.332031 6.53125 -38.609375 7.34375 -38.609375 C 8.101562 -38.609375 8.757812 -38.332031 9.3125 -37.78125 Z M 9.578125 0 L 5.109375 0 L 5.109375 -28.078125 L 9.578125 -28.078125 Z M 9.578125 0 "/></g></g></g><g fill="#ffffff" fill-opacity="1"><g transform="translate(142.67062, 174.151822)"><g><path d="M 27.125 -14.046875 C 27.125 -16.765625 26.1875 -19.144531 24.3125 -21.1875 C 22.40625 -23.226562 20.046875 -24.25 17.234375 -24.25 C 14.421875 -24.25 12.082031 -23.226562 10.21875 -21.1875 C 8.300781 -19.144531 7.34375 -16.765625 7.34375 -14.046875 C 7.34375 -11.316406 8.300781 -8.929688 10.21875 -6.890625 C 12.082031 -4.847656 14.421875 -3.828125 17.234375 -3.828125 C 20.046875 -3.828125 22.40625 -4.847656 24.3125 -6.890625 C 26.1875 -8.929688 27.125 -11.316406 27.125 -14.046875 Z M 31.59375 0 L 27.125 0 L 27.125 -4.78125 C 26.875 -4.445312 26.617188 -4.128906 26.359375 -3.828125 C 23.679688 -0.847656 20.40625 0.640625 16.53125 0.640625 C 12.65625 0.640625 9.398438 -0.847656 6.765625 -3.828125 C 4.171875 -6.722656 2.875 -10.128906 2.875 -14.046875 C 2.875 -17.960938 4.171875 -21.363281 6.765625 -24.25 C 9.398438 -27.226562 12.65625 -28.71875 16.53125 -28.71875 C 20.40625 -28.71875 23.679688 -27.226562 26.359375 -24.25 C 26.617188 -23.957031 26.875 -23.640625 27.125 -23.296875 L 27.125 -47.875 L 31.59375 -47.875 Z M 31.59375 0 "/></g></g></g><g fill="#ffffff" fill-opacity="1"><g transform="translate(173.371629, 174.151822)"><g><path d="M 32.234375 -14.6875 L 32.234375 -12.3125 L 7.53125 -12.3125 C 7.957031 -9.894531 9.128906 -7.921875 11.046875 -6.390625 C 13.003906 -4.804688 15.171875 -4.015625 17.546875 -4.015625 C 19.171875 -4.015625 20.726562 -4.398438 22.21875 -5.171875 C 23.65625 -5.890625 24.863281 -6.910156 25.84375 -8.234375 L 30.953125 -8.234375 C 29.765625 -5.554688 27.976562 -3.453125 25.59375 -1.921875 C 23.164062 -0.335938 20.71875 0.453125 18.25 0.453125 C 15.738281 0.453125 13.613281 0.0664062 11.875 -0.703125 C 10.082031 -1.460938 8.53125 -2.503906 7.21875 -3.828125 C 4.320312 -6.640625 2.875 -10.085938 2.875 -14.171875 C 2.875 -18.210938 4.320312 -21.679688 7.21875 -24.578125 C 10.0625 -27.421875 13.503906 -28.84375 17.546875 -28.84375 C 21.460938 -28.84375 24.890625 -27.460938 27.828125 -24.703125 C 30.765625 -21.890625 32.234375 -18.550781 32.234375 -14.6875 Z M 27.515625 -16.15625 C 27.003906 -18.53125 25.8125 -20.503906 23.9375 -22.078125 C 22.0625 -23.609375 19.929688 -24.375 17.546875 -24.375 C 13.890625 -24.375 11.019531 -22.738281 8.9375 -19.46875 C 8.300781 -18.445312 7.851562 -17.34375 7.59375 -16.15625 Z M 27.515625 -16.15625 "/></g></g></g><g fill="#ffffff" fill-opacity="1"><g transform="translate(202.476929, 174.151822)"><g><path d="M 9.25 0 L 4.78125 0 L 4.78125 -47.875 L 9.25 -47.875 L 9.25 -23.234375 C 10.1875 -24.804688 11.378906 -26.101562 12.828125 -27.125 C 14.359375 -28.144531 16.125 -28.65625 18.125 -28.65625 C 20.125 -28.65625 21.742188 -28.378906 22.984375 -27.828125 C 24.210938 -27.234375 25.253906 -26.445312 26.109375 -25.46875 C 27.804688 -23.46875 28.65625 -20.828125 28.65625 -17.546875 L 28.65625 0 L 24.1875 0 L 24.1875 -17.546875 C 24.1875 -19.378906 23.785156 -20.957031 22.984375 -22.28125 C 22.128906 -23.550781 20.742188 -24.1875 18.828125 -24.1875 C 16.910156 -24.1875 15.359375 -23.890625 14.171875 -23.296875 C 12.972656 -22.660156 12.015625 -21.789062 11.296875 -20.6875 C 9.929688 -18.632812 9.25 -15.65625 9.25 -11.75 Z M 9.25 0 "/></g></g></g><g fill="#ffffff" fill-opacity="1"><g transform="translate(229.284379, 174.151822)"><g><path d="M 24.1875 -4.78125 C 22.101562 -1.207031 18.976562 0.578125 14.8125 0.578125 C 11.65625 0.578125 9.1875 -0.460938 7.40625 -2.546875 C 5.65625 -4.640625 4.78125 -7.300781 4.78125 -10.53125 L 4.78125 -28.078125 L 9.25 -28.078125 L 9.25 -10.53125 C 9.25 -8.695312 9.675781 -7.144531 10.53125 -5.875 C 11.34375 -4.550781 12.703125 -3.890625 14.609375 -3.890625 C 18.097656 -3.890625 20.566406 -5 22.015625 -7.21875 C 23.460938 -9.382812 24.1875 -12.425781 24.1875 -16.34375 L 24.1875 -28.078125 L 28.65625 -28.078125 L 28.65625 0 L 24.1875 0 Z M 24.1875 -4.78125 "/></g></g></g><g fill="#ffffff" fill-opacity="1"><g transform="translate(256.091829, 174.151822)"><g><path d="M 8.875 -4.015625 C 9.976562 -3.253906 11.425781 -2.875 13.21875 -2.875 C 17.300781 -2.875 19.34375 -4.40625 19.34375 -7.46875 C 19.34375 -9.257812 17.875 -10.617188 14.9375 -11.546875 C 13.695312 -11.972656 12.378906 -12.359375 10.984375 -12.703125 C 9.535156 -13.046875 8.191406 -13.492188 6.953125 -14.046875 C 5.503906 -14.722656 4.421875 -15.570312 3.703125 -16.59375 C 2.972656 -17.613281 2.609375 -18.828125 2.609375 -20.234375 C 2.609375 -23.046875 3.585938 -25.148438 5.546875 -26.546875 C 7.503906 -27.992188 9.847656 -28.71875 12.578125 -28.71875 C 15.296875 -28.71875 17.550781 -28.164062 19.34375 -27.0625 C 21.125 -25.957031 22.335938 -23.976562 22.984375 -21.125 L 18.1875 -21.125 C 17.675781 -22.695312 16.929688 -23.738281 15.953125 -24.25 C 15.015625 -24.757812 13.847656 -25.015625 12.453125 -25.015625 C 11.046875 -25.015625 9.851562 -24.71875 8.875 -24.125 C 7.851562 -23.488281 7.34375 -22.550781 7.34375 -21.3125 C 7.34375 -20.039062 7.765625 -19.109375 8.609375 -18.515625 C 9.421875 -17.960938 10.445312 -17.472656 11.6875 -17.046875 C 12.914062 -16.660156 14.253906 -16.316406 15.703125 -16.015625 C 17.109375 -15.679688 18.445312 -15.210938 19.71875 -14.609375 C 22.613281 -13.253906 24.0625 -11.066406 24.0625 -8.046875 C 24.0625 -5.023438 22.976562 -2.789062 20.8125 -1.34375 C 19.707031 -0.613281 18.492188 -0.0625 17.171875 0.3125 C 15.890625 0.65625 14.484375 0.828125 12.953125 0.828125 C 6.441406 0.828125 2.695312 -2.0625 1.71875 -7.84375 L 6.453125 -7.84375 C 6.921875 -6.019531 7.726562 -4.742188 8.875 -4.015625 Z M 8.875 -4.015625 "/></g></g></g><g fill="#ffffff" fill-opacity="1"><g transform="translate(276.069584, 174.151822)"><g><path d="M 1.28125 -23.9375 L 1.28125 -28.078125 L 8.296875 -28.078125 L 8.296875 -39 L 12.765625 -39 L 12.765625 -28.078125 L 19.71875 -28.078125 L 19.71875 -23.9375 L 12.765625 -23.9375 L 12.765625 0 L 8.296875 0 L 8.296875 -23.9375 Z M 1.28125 -23.9375 "/></g></g></g><g fill="#ffffff" fill-opacity="1"><g transform="translate(291.387842, 174.151822)"><g><path d="M 9.25 0 L 4.78125 0 L 4.78125 -47.875 L 9.25 -47.875 Z M 9.25 0 "/></g></g></g><g fill="#ffffff" fill-opacity="1"><g transform="translate(299.748764, 174.151822)"><g><path d="M 32.234375 -14.6875 L 32.234375 -12.3125 L 7.53125 -12.3125 C 7.957031 -9.894531 9.128906 -7.921875 11.046875 -6.390625 C 13.003906 -4.804688 15.171875 -4.015625 17.546875 -4.015625 C 19.171875 -4.015625 20.726562 -4.398438 22.21875 -5.171875 C 23.65625 -5.890625 24.863281 -6.910156 25.84375 -8.234375 L 30.953125 -8.234375 C 29.765625 -5.554688 27.976562 -3.453125 25.59375 -1.921875 C 23.164062 -0.335938 20.71875 0.453125 18.25 0.453125 C 15.738281 0.453125 13.613281 0.0664062 11.875 -0.703125 C 10.082031 -1.460938 8.53125 -2.503906 7.21875 -3.828125 C 4.320312 -6.640625 2.875 -10.085938 2.875 -14.171875 C 2.875 -18.210938 4.320312 -21.679688 7.21875 -24.578125 C 10.0625 -27.421875 13.503906 -28.84375 17.546875 -28.84375 C 21.460938 -28.84375 24.890625 -27.460938 27.828125 -24.703125 C 30.765625 -21.890625 32.234375 -18.550781 32.234375 -14.6875 Z M 27.515625 -16.15625 C 27.003906 -18.53125 25.8125 -20.503906 23.9375 -22.078125 C 22.0625 -23.609375 19.929688 -24.375 17.546875 -24.375 C 13.890625 -24.375 11.019531 -22.738281 8.9375 -19.46875 C 8.300781 -18.445312 7.851562 -17.34375 7.59375 -16.15625 Z M 27.515625 -16.15625 "/></g></g></g><g fill="#ffffff" fill-opacity="1"><g transform="translate(50.927997, 183.079789)"><g><path d="M 29.671875 -51.109375 L 50.3125 0 L 37.796875 0 L 34.015625 -10.21875 L 14.5625 -10.21875 L 10.78125 0 L -1.734375 0 L 18.890625 -51.109375 Z M 30.046875 -20.4375 L 24.34375 -35.3125 L 24.21875 -35.3125 L 18.53125 -20.4375 Z M 30.046875 -20.4375 "/></g></g></g><g fill="#ffffff" fill-opacity="1"><g transform="translate(93.989172, 183.079789)"><g><path d="M 15.359375 -51.109375 L 15.359375 0 L 3.71875 0 L 3.71875 -51.109375 Z M 15.359375 -51.109375 "/></g></g></g></svg>