<svg xmlns="http://www.w3.org/2000/svg" xmlns:xlink="http://www.w3.org/1999/xlink" width="512" zoomAndPan="magnify" viewBox="0 0 384 149.999998" height="200" preserveAspectRatio="xMidYMid meet" version="1.0"><defs><g/></defs><rect x="-38.4" width="460.8" fill="#ffffff" y="-15" height="179.999997" fill-opacity="1"/><rect x="-38.4" width="460.8" fill="#ffffff" y="-15" height="179.999997" fill-opacity="1"/><g fill="#000000" fill-opacity="1"><g transform="translate(91.502968, 99.438185)"><g><path d="M 11.328125 -5.125 C 12.734375 -4.15625 14.578125 -3.671875 16.859375 -3.671875 C 22.078125 -3.671875 24.6875 -5.625 24.6875 -9.53125 C 24.6875 -11.8125 22.8125 -13.550781 19.0625 -14.75 C 17.488281 -15.289062 15.804688 -15.78125 14.015625 -16.21875 C 12.171875 -16.644531 10.457031 -17.210938 8.875 -17.921875 C 7.03125 -18.796875 5.644531 -19.882812 4.71875 -21.1875 C 3.800781 -22.488281 3.34375 -24.035156 3.34375 -25.828125 C 3.34375 -29.410156 4.59375 -32.097656 7.09375 -33.890625 C 9.582031 -35.734375 12.566406 -36.65625 16.046875 -36.65625 C 19.523438 -36.65625 22.40625 -35.953125 24.6875 -34.546875 C 26.96875 -33.128906 28.515625 -30.601562 29.328125 -26.96875 L 23.21875 -26.96875 C 22.5625 -28.976562 21.613281 -30.304688 20.375 -30.953125 C 19.175781 -31.609375 17.679688 -31.9375 15.890625 -31.9375 C 14.097656 -31.9375 12.578125 -31.554688 11.328125 -30.796875 C 10.023438 -29.984375 9.375 -28.785156 9.375 -27.203125 C 9.375 -25.578125 9.914062 -24.382812 11 -23.625 C 12.03125 -22.914062 13.332031 -22.289062 14.90625 -21.75 C 16.476562 -21.257812 18.191406 -20.828125 20.046875 -20.453125 C 21.835938 -20.015625 23.546875 -19.414062 25.171875 -18.65625 C 28.867188 -16.914062 30.71875 -14.117188 30.71875 -10.265625 C 30.71875 -6.410156 29.332031 -3.554688 26.5625 -1.703125 C 25.144531 -0.785156 23.597656 -0.0820312 21.921875 0.40625 C 20.285156 0.84375 18.488281 1.0625 16.53125 1.0625 C 8.226562 1.0625 3.453125 -2.628906 2.203125 -10.015625 L 8.234375 -10.015625 C 8.828125 -7.679688 9.859375 -6.050781 11.328125 -5.125 Z M 11.328125 -5.125 "/></g></g></g><g fill="#000000" fill-opacity="1"><g transform="translate(117.001796, 99.438185)"><g><path d="M 11.890625 -48.234375 C 12.597656 -47.523438 12.953125 -46.679688 12.953125 -45.703125 C 12.953125 -44.671875 12.597656 -43.800781 11.890625 -43.09375 C 11.179688 -42.382812 10.34375 -42.03125 9.375 -42.03125 C 8.34375 -42.03125 7.472656 -42.382812 6.765625 -43.09375 C 6.054688 -43.800781 5.703125 -44.671875 5.703125 -45.703125 C 5.703125 -46.679688 6.054688 -47.523438 6.765625 -48.234375 C 7.472656 -48.929688 8.34375 -49.28125 9.375 -49.28125 C 10.34375 -49.28125 11.179688 -48.929688 11.890625 -48.234375 Z M 12.21875 0 L 6.515625 0 L 6.515625 -35.84375 L 12.21875 -35.84375 Z M 12.21875 0 "/></g></g></g><g fill="#000000" fill-opacity="1"><g transform="translate(128.40654, 99.438185)"><g><path d="M 34.625 -17.921875 C 34.625 -21.398438 33.429688 -24.441406 31.046875 -27.046875 C 28.597656 -29.648438 25.582031 -30.953125 22 -30.953125 C 18.414062 -30.953125 15.425781 -29.648438 13.03125 -27.046875 C 10.59375 -24.441406 9.375 -21.398438 9.375 -17.921875 C 9.375 -14.441406 10.59375 -11.398438 13.03125 -8.796875 C 15.425781 -6.191406 18.414062 -4.890625 22 -4.890625 C 25.582031 -4.890625 28.597656 -6.191406 31.046875 -8.796875 C 33.429688 -11.398438 34.625 -14.441406 34.625 -17.921875 Z M 40.328125 0 L 34.625 0 L 34.625 -6.109375 C 34.300781 -5.671875 33.972656 -5.265625 33.640625 -4.890625 C 30.222656 -1.085938 26.039062 0.8125 21.09375 0.8125 C 16.15625 0.8125 12.003906 -1.085938 8.640625 -4.890625 C 5.328125 -8.578125 3.671875 -12.921875 3.671875 -17.921875 C 3.671875 -22.921875 5.328125 -27.265625 8.640625 -30.953125 C 12.003906 -34.753906 16.15625 -36.65625 21.09375 -36.65625 C 26.039062 -36.65625 30.222656 -34.753906 33.640625 -30.953125 C 33.972656 -30.578125 34.300781 -30.171875 34.625 -29.734375 L 34.625 -61.109375 L 40.328125 -61.109375 Z M 40.328125 0 "/></g></g></g><g fill="#000000" fill-opacity="1"><g transform="translate(167.592109, 99.438185)"><g><path d="M 41.140625 -18.734375 L 41.140625 -15.71875 L 9.609375 -15.71875 C 10.148438 -12.625 11.644531 -10.097656 14.09375 -8.140625 C 16.59375 -6.128906 19.363281 -5.125 22.40625 -5.125 C 24.46875 -5.125 26.445312 -5.613281 28.34375 -6.59375 C 30.195312 -7.519531 31.75 -8.828125 33 -10.515625 L 39.515625 -10.515625 C 37.992188 -7.085938 35.710938 -4.394531 32.671875 -2.4375 C 29.578125 -0.4375 26.453125 0.5625 23.296875 0.5625 C 20.097656 0.5625 17.382812 0.078125 15.15625 -0.890625 C 12.875 -1.867188 10.890625 -3.203125 9.203125 -4.890625 C 5.515625 -8.472656 3.671875 -12.875 3.671875 -18.09375 C 3.671875 -23.25 5.515625 -27.671875 9.203125 -31.359375 C 12.847656 -35.003906 17.25 -36.828125 22.40625 -36.828125 C 27.40625 -36.828125 31.773438 -35.0625 35.515625 -31.53125 C 39.265625 -27.945312 41.140625 -23.679688 41.140625 -18.734375 Z M 35.109375 -20.609375 C 34.460938 -23.648438 32.941406 -26.175781 30.546875 -28.1875 C 28.160156 -30.144531 25.445312 -31.125 22.40625 -31.125 C 17.726562 -31.125 14.0625 -29.03125 11.40625 -24.84375 C 10.59375 -23.539062 10.019531 -22.128906 9.6875 -20.609375 Z M 35.109375 -20.609375 "/></g></g></g><g fill="#000000" fill-opacity="1"><g transform="translate(204.740968, 99.438185)"><g><path d="M 11.8125 0 L 6.109375 0 L 6.109375 -61.109375 L 11.8125 -61.109375 L 11.8125 -29.65625 C 13.007812 -31.664062 14.53125 -33.320312 16.375 -34.625 C 18.332031 -35.925781 20.585938 -36.578125 23.140625 -36.578125 C 25.691406 -36.578125 27.753906 -36.222656 29.328125 -35.515625 C 30.898438 -34.753906 32.234375 -33.75 33.328125 -32.5 C 35.492188 -29.945312 36.578125 -26.582031 36.578125 -22.40625 L 36.578125 0 L 30.875 0 L 30.875 -22.40625 C 30.875 -24.738281 30.359375 -26.75 29.328125 -28.4375 C 28.242188 -30.0625 26.476562 -30.875 24.03125 -30.875 C 21.59375 -30.875 19.613281 -30.492188 18.09375 -29.734375 C 16.570312 -28.921875 15.347656 -27.804688 14.421875 -26.390625 C 12.679688 -23.785156 11.8125 -19.984375 11.8125 -14.984375 Z M 11.8125 0 "/></g></g></g><g fill="#000000" fill-opacity="1"><g transform="translate(238.956947, 99.438185)"><g><path d="M 30.875 -6.109375 C 28.21875 -1.546875 24.226562 0.734375 18.90625 0.734375 C 14.882812 0.734375 11.734375 -0.597656 9.453125 -3.265625 C 7.222656 -5.921875 6.109375 -9.3125 6.109375 -13.4375 L 6.109375 -35.84375 L 11.8125 -35.84375 L 11.8125 -13.4375 C 11.8125 -11.101562 12.351562 -9.125 13.4375 -7.5 C 14.46875 -5.8125 16.207031 -4.96875 18.65625 -4.96875 C 23.113281 -4.96875 26.265625 -6.378906 28.109375 -9.203125 C 29.953125 -11.972656 30.875 -15.859375 30.875 -20.859375 L 30.875 -35.84375 L 36.578125 -35.84375 L 36.578125 0 L 30.875 0 Z M 30.875 -6.109375 "/></g></g></g><g fill="#000000" fill-opacity="1"><g transform="translate(273.172925, 99.438185)"><g><path d="M 11.328125 -5.125 C 12.734375 -4.15625 14.578125 -3.671875 16.859375 -3.671875 C 22.078125 -3.671875 24.6875 -5.625 24.6875 -9.53125 C 24.6875 -11.8125 22.8125 -13.550781 19.0625 -14.75 C 17.488281 -15.289062 15.804688 -15.78125 14.015625 -16.21875 C 12.171875 -16.644531 10.457031 -17.210938 8.875 -17.921875 C 7.03125 -18.796875 5.644531 -19.882812 4.71875 -21.1875 C 3.800781 -22.488281 3.34375 -24.035156 3.34375 -25.828125 C 3.34375 -29.410156 4.59375 -32.097656 7.09375 -33.890625 C 9.582031 -35.734375 12.566406 -36.65625 16.046875 -36.65625 C 19.523438 -36.65625 22.40625 -35.953125 24.6875 -34.546875 C 26.96875 -33.128906 28.515625 -30.601562 29.328125 -26.96875 L 23.21875 -26.96875 C 22.5625 -28.976562 21.613281 -30.304688 20.375 -30.953125 C 19.175781 -31.609375 17.679688 -31.9375 15.890625 -31.9375 C 14.097656 -31.9375 12.578125 -31.554688 11.328125 -30.796875 C 10.023438 -29.984375 9.375 -28.785156 9.375 -27.203125 C 9.375 -25.578125 9.914062 -24.382812 11 -23.625 C 12.03125 -22.914062 13.332031 -22.289062 14.90625 -21.75 C 16.476562 -21.257812 18.191406 -20.828125 20.046875 -20.453125 C 21.835938 -20.015625 23.546875 -19.414062 25.171875 -18.65625 C 28.867188 -16.914062 30.71875 -14.117188 30.71875 -10.265625 C 30.71875 -6.410156 29.332031 -3.554688 26.5625 -1.703125 C 25.144531 -0.785156 23.597656 -0.0820312 21.921875 0.40625 C 20.285156 0.84375 18.488281 1.0625 16.53125 1.0625 C 8.226562 1.0625 3.453125 -2.628906 2.203125 -10.015625 L 8.234375 -10.015625 C 8.828125 -7.679688 9.859375 -6.050781 11.328125 -5.125 Z M 11.328125 -5.125 "/></g></g></g><g fill="#000000" fill-opacity="1"><g transform="translate(298.671756, 99.438185)"><g><path d="M 1.625 -30.546875 L 1.625 -35.84375 L 10.59375 -35.84375 L 10.59375 -49.78125 L 16.296875 -49.78125 L 16.296875 -35.84375 L 25.171875 -35.84375 L 25.171875 -30.546875 L 16.296875 -30.546875 L 16.296875 0 L 10.59375 0 L 10.59375 -30.546875 Z M 1.625 -30.546875 "/></g></g></g><g fill="#000000" fill-opacity="1"><g transform="translate(318.223368, 99.438185)"><g><path d="M 11.8125 0 L 6.109375 0 L 6.109375 -61.109375 L 11.8125 -61.109375 Z M 11.8125 0 "/></g></g></g><g fill="#000000" fill-opacity="1"><g transform="translate(328.894891, 99.438185)"><g><path d="M 41.140625 -18.734375 L 41.140625 -15.71875 L 9.609375 -15.71875 C 10.148438 -12.625 11.644531 -10.097656 14.09375 -8.140625 C 16.59375 -6.128906 19.363281 -5.125 22.40625 -5.125 C 24.46875 -5.125 26.445312 -5.613281 28.34375 -6.59375 C 30.195312 -7.519531 31.75 -8.828125 33 -10.515625 L 39.515625 -10.515625 C 37.992188 -7.085938 35.710938 -4.394531 32.671875 -2.4375 C 29.578125 -0.4375 26.453125 0.5625 23.296875 0.5625 C 20.097656 0.5625 17.382812 0.078125 15.15625 -0.890625 C 12.875 -1.867188 10.890625 -3.203125 9.203125 -4.890625 C 5.515625 -8.472656 3.671875 -12.875 3.671875 -18.09375 C 3.671875 -23.25 5.515625 -27.671875 9.203125 -31.359375 C 12.847656 -35.003906 17.25 -36.828125 22.40625 -36.828125 C 27.40625 -36.828125 31.773438 -35.0625 35.515625 -31.53125 C 39.265625 -27.945312 41.140625 -23.679688 41.140625 -18.734375 Z M 35.109375 -20.609375 C 34.460938 -23.648438 32.941406 -26.175781 30.546875 -28.1875 C 28.160156 -30.144531 25.445312 -31.125 22.40625 -31.125 C 17.726562 -31.125 14.0625 -29.03125 11.40625 -24.84375 C 10.59375 -23.539062 10.019531 -22.128906 9.6875 -20.609375 Z M 35.109375 -20.609375 "/></g></g></g><g fill="#000000" fill-opacity="1"><g transform="translate(11.316657, 109.772665)"><g><path d="M 37.875 -65.234375 L 64.21875 0 L 48.234375 0 L 43.40625 -13.046875 L 18.578125 -13.046875 L 13.765625 0 L -2.21875 0 L 24.125 -65.234375 Z M 38.359375 -26.09375 L 31.078125 -45.078125 L 30.921875 -45.078125 L 23.640625 -26.09375 Z M 38.359375 -26.09375 "/></g></g></g><g fill="#000000" fill-opacity="1"><g transform="translate(66.275657, 109.772665)"><g><path d="M 19.609375 -65.234375 L 19.609375 0 L 4.75 0 L 4.75 -65.234375 Z M 19.609375 -65.234375 "/></g></g></g></svg>